<svg id="Layer_4" data-name="Layer 4" xmlns="http://www.w3.org/2000/svg" viewBox="0 0 1064.24 1181.16"><defs><style>.cls-1{fill:#d45f47;}</style></defs><path class="cls-1" d="M1094.2,1133.34a1286.84,1286.84,0,0,1,121.94,207.24,1697.45,1697.45,0,0,0-292.3-230.83q-17.82-11.13-35.39-21.5A1695.86,1695.86,0,0,0,689.52,987.71l235.83-170L999,764.65,878.15,651.7l136.5-148.29q74.56,74.05,142.93,146.88,65,69.16,124.54,136.72a1271,1271,0,0,0-159.43,93.35q-10.29,7-20.63,14.48-26.64,19.11-51,38.59c-25.86,20.59-49.84,41.34-72,61.92A1286.45,1286.45,0,0,1,1094.2,1133.34Z" transform="translate(-217.88 -159.42)"/><path class="cls-1" d="M856.22,754.08a2949.25,2949.25,0,0,0-638.34,573.63A3067.92,3067.92,0,0,1,639.82,554.89Z" transform="translate(-217.88 -159.42)"/><path class="cls-1" d="M878.61,372.57,740.31,522.82,627.93,417.73l-50.49,79.73L442.18,711.13a1401.53,1401.53,0,0,1,65.36-278q15.85-45.87,36.35-94A1396.88,1396.88,0,0,1,637,159.42q49.57,41.39,100.26,85.63Q807.08,306,878.61,372.57Z" transform="translate(-217.88 -159.42)"/><path class="cls-1" d="M969.76,459.3,832.2,608.74l-45.94-43L924.4,415.69Q947,437.2,969.76,459.3Z" transform="translate(-217.88 -159.42)"/></svg>