<svg id="Layer_5" data-name="Layer 5" xmlns="http://www.w3.org/2000/svg" viewBox="0 0 1409.78 339.02"><defs><style>.cls-1,.cls-3{fill:#d45f47;}.cls-2{fill:#fff;}.cls-3{font-size:229.38px;font-family:BaiJamjuree-Regular, Bai Jamjuree;}</style></defs><rect class="cls-1" width="308.74" height="308.74" rx="93.96"/><path class="cls-2" d="M281.56,718.18a248,248,0,0,1,23.49,39.92,326.4,326.4,0,0,0-56.3-44.46q-3.44-2.14-6.81-4.14a325.82,325.82,0,0,0-38.32-19.37L249,657.39l14.18-10.22L240,625.42l26.29-28.57q14.37,14.26,27.53,28.29,12.53,13.33,24,26.34a244.39,244.39,0,0,0-30.71,18q-2,1.35-4,2.79-5.13,3.68-9.83,7.43c-5,4-9.6,8-13.87,11.92A247.21,247.21,0,0,1,281.56,718.18Z" transform="translate(-60.9 -491.44)"/><path class="cls-2" d="M235.73,645.14A567.85,567.85,0,0,0,112.78,755.62a590.83,590.83,0,0,1,81.27-148.85Z" transform="translate(-60.9 -491.44)"/><path class="cls-2" d="M240,571.65,213.4,600.59l-21.64-20.24L182,595.71,156,636.86a270.67,270.67,0,0,1,12.59-53.54c2-5.89,4.36-11.94,7-18.1A268.79,268.79,0,0,1,193.5,530.6q9.56,8,19.31,16.49Q226.27,558.83,240,571.65Z" transform="translate(-60.9 -491.44)"/><path class="cls-2" d="M257.6,588.36l-26.5,28.78-8.85-8.27L248.86,580Q253.23,584.1,257.6,588.36Z" transform="translate(-60.9 -491.44)"/><text class="cls-3" transform="translate(372.98 227.08)">Radiance </text></svg>